
<svg xmlns="http://www.w3.org/2000/svg"
     class="svg-snoweb svg-theme-dark"
     x="0"
     y="0"
     width="100%"
     height="100%"
     viewBox="0 0 100 100"
     preserveAspectRatio="xMidYMid meet"
>
<defs>
    <style>
        
            
            
            
        

        .svg-fill-primary {
            fill: #000;
        }

        .svg-fill-secondary {
            fill: #9e9e9e;
        }

        .svg-fill-tertiary {
            fill: #9e9e9e;
        }

        .svg-stroke-primary {
            stroke: #000;
        }

        .svg-stroke-secondary {
            stroke: #9e9e9e;
        }

        .svg-stroke-tertiary {
            stroke: #9e9e9e;
        }
    </style>
</defs>
    <path d="M50,35.7c-5.9,0-10.7,3.2-10.7,7.2S44.1,50,50,50s10.7,3.2,10.7,7.1S55.9,64.3,50,64.3m0-28.6a12.6,12.6,0,0,1,9.3,3.6M50,35.7V32.2m0,3.5V64.3m0,0v3.5m0-3.5a12.6,12.6,0,0,1-9.3-3.6M82.1,50A32.1,32.1,0,1,1,50,17.9,32.1,32.1,0,0,1,82.1,50Z"
      fill="none" class="svg-stroke-primary" stroke-linecap="round" stroke-linejoin="round" stroke-width="8"/>

</svg>