
<svg xmlns="http://www.w3.org/2000/svg"
     class="svg-snoweb svg-theme-dark"
     x="0"
     y="0"
     width="100%"
     height="100%"
     viewBox="0 0 100 100"
     preserveAspectRatio="xMidYMid meet"
>
<defs>
    <style>
        
            
            
            
        

        .svg-fill-primary {
            fill: #000;
        }

        .svg-fill-secondary {
            fill: #9e9e9e;
        }

        .svg-fill-tertiary {
            fill: #9e9e9e;
        }

        .svg-stroke-primary {
            stroke: #000;
        }

        .svg-stroke-secondary {
            stroke: #9e9e9e;
        }

        .svg-stroke-tertiary {
            stroke: #9e9e9e;
        }
    </style>
</defs>
    <path d="M42,86.1H70.1a8,8,0,0,0,8-8V39.6a3.8,3.8,0,0,0-1.2-2.8L55.2,15.1a3.9,3.9,0,0,0-2.8-1.2H29.9a8,8,0,0,0-8,8V66.1m0,20L41.5,66.5m0,0A12,12,0,1,0,38,58,11.6,11.6,0,0,0,41.5,66.5Z"
      fill="none" class="svg-stroke-primary" stroke-linecap="round" stroke-linejoin="round" stroke-width="8"/>

</svg>