
<svg xmlns="http://www.w3.org/2000/svg"
     class="svg-snoweb svg-theme-dark"
     x="0"
     y="0"
     width="100%"
     height="100%"
     viewBox="0 0 100 100"
     preserveAspectRatio="xMidYMid meet"
>
<defs>
    <style>
        
            
            
            
        

        .svg-fill-primary {
            fill: #000;
        }

        .svg-fill-secondary {
            fill: #9e9e9e;
        }

        .svg-fill-tertiary {
            fill: #9e9e9e;
        }

        .svg-stroke-primary {
            stroke: #000;
        }

        .svg-stroke-secondary {
            stroke: #9e9e9e;
        }

        .svg-stroke-tertiary {
            stroke: #9e9e9e;
        }
    </style>
</defs>
    

<clipPath id="clip-path-202401-1917-1357-d3ca471a-490f-4c9f-804e-0c28dc8c0ab8">
    <rect x="0" y="95" width="100" height="5"></rect>
</clipPath>
<g clip-path="url(#clip-path-202401-1917-1357-d3ca471a-490f-4c9f-804e-0c28dc8c0ab8)">
    <rect 
            class="svg-fill-tertiary"
            x="0"
            y="95"
            width="100"
            height="5">
    </rect>
    <g transform="translate(0, 50)">
        <circle 
                class="svg-fill-secondary svg-builder-circle"
                cx="50"
                cy="50"
                r="50">
        </circle>
    </g>
</g>

    <g transform="translate(20.00, 20.00) scale(0.60, 0.60)">
        
    <path d="M17.9,21.5a3.6,3.6,0,0,1,3.6-3.6h57a3.6,3.6,0,0,1,3.6,3.6v9.2a3.9,3.9,0,0,1-1,2.5L58.2,56.1a3.6,3.6,0,0,0-1.1,2.5v9.2L42.9,82.1V58.6a3.6,3.6,0,0,0-1.1-2.5L18.9,33.2a3.9,3.9,0,0,1-1-2.5Z"
      fill="none" class="svg-stroke-primary" stroke-linecap="round" stroke-linejoin="round" stroke-width="8"/>


    </g>
</svg>